<?xml version="1.0" encoding="UTF-8"?> <svg xmlns="http://www.w3.org/2000/svg" width="151" height="51" viewBox="0 0 151 51" fill="none"> <path d="M14.9299 9.17361C13.2381 9.17361 11.8737 9.47617 10.8351 10.0794C9.79554 10.6845 8.97435 11.4204 8.37089 12.2903C7.76611 13.1597 7.35608 14.1145 7.13868 15.1525C6.92151 16.1923 6.8129 17.1458 6.8129 18.0152C6.8129 18.8851 6.92151 19.8395 7.13868 20.8784C7.35608 21.9177 7.76611 22.8712 8.37089 23.7406C8.97435 24.6105 9.79554 25.3478 10.8351 25.951C11.8737 26.5561 13.2381 26.8572 14.9299 26.8572H68.601C69.5668 26.8572 70.3876 27.1957 71.0644 27.872C71.7408 28.5489 72.0792 29.3697 72.0792 30.3359C72.0792 31.303 71.7408 32.1239 71.0644 32.7998C70.3876 33.4776 69.5668 33.8146 68.601 33.8146H12.6108C10.629 33.8146 8.86574 33.3322 7.32012 32.3651C5.77336 31.3993 4.4573 30.1547 3.37022 28.6324C2.28313 27.1107 1.44975 25.4077 0.869705 23.5235C0.290024 21.6388 0 19.8031 0 18.0152C0 16.18 0.301271 14.3317 0.906025 12.471C1.50949 10.6118 2.39192 8.91967 3.55128 7.39793C4.711 5.87619 6.11188 4.63247 7.75488 3.66533C9.39693 2.69961 11.2575 2.21627 13.3356 2.21627H54.8634C55.8286 2.21627 56.6494 2.5547 57.3267 3.23108C58.0027 3.90793 58.3416 4.72876 58.3416 5.69448C58.3416 6.66161 58.0027 7.4829 57.3267 8.15881C56.6494 8.83613 55.8286 9.17361 54.8634 9.17361H14.9299Z" fill="#F9F9F9"></path> <path d="M60.1551 14.5364C61.1213 14.5364 61.9421 14.8749 62.6194 15.5513C63.2953 16.2281 63.6342 17.0494 63.6342 18.0151C63.6342 18.9823 63.2953 19.8031 62.6194 20.4795C61.9421 21.1563 61.1213 21.4943 60.1551 21.4943H15.7284C14.7612 21.4943 13.9405 21.1563 13.2642 20.4795C12.5872 19.8031 12.25 18.9823 12.25 18.0151C12.25 17.0494 12.5872 16.2281 13.2642 15.5513C13.9405 14.8749 14.7612 14.5364 15.7284 14.5364H60.1551Z" fill="#F9F9F9"></path> <path d="M138.029 28.9949C137.835 28.5852 137.594 28.2104 137.304 27.872L119.693 4.31805C118.871 3.20695 117.808 2.33705 116.504 1.70881C115.199 1.08152 113.823 0.766692 112.372 0.766692C110.826 0.766692 109.377 1.11786 108.024 1.81737C106.671 2.5183 105.585 3.42455 104.763 4.53517L96.9653 15.3611L88.8521 26.1327C88.5618 26.5197 88.1639 26.9421 87.6565 27.4005C87.1491 27.8602 86.6294 28.0891 86.0979 28.0891C85.566 28.0891 85.0477 27.8602 84.5403 27.4005C84.0329 26.9421 83.6095 26.5197 83.2716 26.1327L66.3856 3.59306C65.7083 2.67595 64.7907 2.21621 63.631 2.21621C62.6639 2.21621 61.8431 2.55464 61.1672 3.23102C60.4898 3.90788 60.1523 4.7287 60.1523 5.69442C60.1523 6.17822 60.2486 6.62568 60.4421 7.03585C60.6347 7.44649 60.8769 7.82127 61.1672 8.15875L78.7781 31.7127C79.648 32.8247 80.7227 33.6946 82.0033 34.3219C83.2829 34.9506 84.6484 35.264 86.0979 35.264C87.6442 35.264 89.0805 34.9143 90.4106 34.2134C91.7388 33.5134 92.8381 32.6076 93.7076 31.4956L96.1393 28.2199C96.2323 28.1269 96.3305 28.0485 96.4183 27.9428L101.404 21.128L110.335 9.09756C110.487 8.94463 110.635 8.79265 110.815 8.63028C111.322 8.17102 111.841 7.94115 112.372 7.94115C112.904 7.94115 113.424 8.17102 113.931 8.63028C114.438 9.09001 114.861 9.51198 115.199 9.89808L132.086 32.4377C132.762 33.3562 133.681 33.8145 134.84 33.8145C135.806 33.8145 136.627 33.4775 137.304 32.7997C137.981 32.1238 138.319 31.303 138.319 30.3358C138.319 29.8535 138.221 29.406 138.029 28.9949Z" fill="#F9F9F9"></path> <path d="M112.375 21.4944C111.119 21.4944 110.057 21.9291 109.186 22.7985C108.317 23.6684 107.883 24.7318 107.883 25.9874C107.883 27.2443 108.317 28.3068 109.186 29.1762C110.057 30.0461 111.119 30.4808 112.375 30.4808C113.632 30.4808 114.695 30.0461 115.564 29.1762C116.435 28.3068 116.869 27.2443 116.869 25.9874C116.869 24.7318 116.435 23.6684 115.564 22.7985C114.695 21.9291 113.632 21.4944 112.375 21.4944Z" fill="#F9F9F9"></path> <path d="M1.29786 47.6702L5.01358 43.5525H5.37183L3.04206 46.149L5.59476 49.8212H5.28003L2.86285 46.3283L1.29786 48.029V49.8212H1.03125V43.5525H1.29786V47.6702Z" fill="#F9F9F9" stroke="white" stroke-width="0.5"></path> <path d="M10.338 47.7618L12.3531 43.5524H12.6197L10.2025 48.6147C9.98682 49.0574 9.76021 49.384 9.52255 49.5936C9.28528 49.8032 9.00463 49.9084 8.68126 49.9084C8.60253 49.9084 8.52177 49.9009 8.43879 49.8863C8.35543 49.8721 8.29369 49.8561 8.25291 49.8386L8.1873 49.8211V49.5544C8.33589 49.6125 8.50057 49.6418 8.68126 49.6418C9.2174 49.6418 9.63853 49.2991 9.94457 48.6147L10.2025 48.0289L7.78516 43.5524H8.05618L10.338 47.7618Z" fill="#F9F9F9" stroke="white" stroke-width="0.5"></path> <path d="M19.3747 43.5525H19.6893L17.495 46.5993L19.8248 49.8212H19.5102L17.3637 46.8225L15.2134 49.8212H14.8984L17.2282 46.5993L15.0339 43.5525H15.3485L17.3637 46.3765L19.3747 43.5525Z" fill="#F9F9F9" stroke="white" stroke-width="0.5"></path> <path d="M27.2182 48.7827C27.7793 48.2097 28.0597 47.5121 28.0597 46.6889C28.0597 45.8657 27.7793 45.1672 27.2182 44.5927C26.6573 44.0193 25.9827 43.7318 25.1943 43.7318C24.4061 43.7318 23.7315 44.0193 23.1706 44.5927C22.6095 45.1672 22.3291 45.8657 22.3291 46.6889C22.3291 47.5121 22.6095 48.2097 23.1706 48.7827C23.7315 49.3553 24.4061 49.6418 25.1943 49.6418C25.9827 49.6418 26.6573 49.3553 27.2182 48.7827ZM27.4019 44.4096C28.0182 45.0388 28.3265 45.7978 28.3265 46.687C28.3265 47.5758 28.0182 48.3348 27.4019 48.964C26.7855 49.5936 26.0504 49.9084 25.1967 49.9084C24.3427 49.9084 23.6068 49.5936 22.9891 48.964C22.3713 48.3348 22.0625 47.5758 22.0625 46.687C22.0625 45.7978 22.3713 45.0388 22.9891 44.4096C23.6068 43.78 24.3427 43.4651 25.1967 43.4651C26.0504 43.4651 26.7855 43.78 27.4019 44.4096Z" fill="#F9F9F9" stroke="white" stroke-width="0.5"></path> <path d="M31.6836 49.8212V43.5525H31.9502V46.5077H35.9805V43.5525H36.2471V49.8212H35.9805V46.7786H31.9502V49.8212H31.6836Z" fill="#F9F9F9" stroke="white" stroke-width="0.5"></path> <path d="M40.0977 49.8212V43.5525H40.3642V46.5077H44.3945V43.5525H44.6611V49.8212H44.3945V46.7786H40.3642V49.8212H40.0977Z" fill="#F9F9F9" stroke="white" stroke-width="0.5"></path> <path d="M52.0427 47.6263L50.4781 43.8673L48.9129 47.6263H52.0427ZM52.1343 47.8973H48.8213L48.017 49.8212H47.7461L50.3426 43.5525H50.6135L53.21 49.8212H52.9386L52.1343 47.8973Z" fill="#F9F9F9" stroke="white" stroke-width="0.5"></path> <path d="M59.8304 43.8234H57.8197C57.3302 43.8234 56.9389 43.9631 56.6458 44.243C56.3532 44.5229 56.2068 44.8902 56.2068 45.3447C56.2068 45.7992 56.3532 46.1664 56.6458 46.4463C56.9389 46.7262 57.3302 46.866 57.8197 46.866H59.8304V43.8234ZM57.8197 43.5525H60.1013V49.8212H59.8304V47.1369H57.6403L56.119 49.8212H55.8047L57.3694 47.0887C57.3288 47.0831 57.2769 47.0727 57.2146 47.0585C57.1513 47.0439 57.038 46.9962 56.8733 46.916C56.7086 46.8362 56.5637 46.7376 56.4386 46.621C56.313 46.5044 56.1988 46.3345 56.095 46.1098C55.9916 45.8856 55.9402 45.6307 55.9402 45.3447C55.9402 44.826 56.1148 44.3978 56.4645 44.0594C56.8143 43.7219 57.266 43.5525 57.8197 43.5525Z" fill="#F9F9F9" stroke="white" stroke-width="0.5"></path> <path d="M67.5704 43.5525L70.3902 47.4475L73.2095 43.5525H73.4323V49.8212H73.1656V44.0467L70.3902 47.9062L67.6143 44.0467V49.8212H67.3477V43.5525H67.5704Z" fill="#F9F9F9" stroke="white" stroke-width="0.5"></path> <path d="M80.8162 47.6263L79.251 43.8673L77.6863 47.6263H80.8162ZM80.9082 47.8973H77.5948L76.7905 49.8212H76.5195L79.116 43.5525H79.3865L81.983 49.8212H81.7125L80.9082 47.8973Z" fill="#F9F9F9" stroke="white" stroke-width="0.5"></path> <path d="M85.0703 49.8212V43.5525H85.3375V46.5077H89.3674V43.5525H89.6341V49.8212H89.3674V46.7786H85.3375V49.8212H85.0703Z" fill="#F9F9F9" stroke="white" stroke-width="0.5"></path> <path d="M95.2289 47.7618L97.2438 43.5524H97.5105L95.0934 48.6147C94.8777 49.0574 94.6506 49.384 94.4132 49.5936C94.1758 49.8032 93.895 49.9084 93.5721 49.9084C93.4933 49.9084 93.4126 49.9009 93.329 49.8863C93.246 49.8721 93.1846 49.8561 93.1435 49.8386L93.0779 49.8211V49.5544C93.2266 49.6125 93.3913 49.6418 93.5721 49.6418C94.1083 49.6418 94.5293 49.2991 94.8352 48.6147L95.0934 48.0289L92.6758 43.5524H92.9472L95.2289 47.7618Z" fill="#F9F9F9" stroke="white" stroke-width="0.5"></path> <path d="M103.06 44.3133V48.8898C103.926 48.8667 104.612 48.6359 105.119 48.1969C105.626 47.7585 105.88 47.2256 105.88 46.5992C105.88 45.9729 105.626 45.4409 105.119 45.0034C104.612 44.5668 103.926 44.3364 103.06 44.3133ZM102.79 48.8898V44.3133C101.924 44.3364 101.238 44.5668 100.731 45.0034C100.224 45.4409 99.9703 45.9729 99.9703 46.5992C99.9703 47.2256 100.224 47.7585 100.731 48.1969C101.238 48.6359 101.924 48.8667 102.79 48.8898ZM103.06 49.148V50H102.79V49.148C101.86 49.1244 101.113 48.8681 100.549 48.3787C99.9854 47.8887 99.7031 47.2949 99.7031 46.5968C99.7031 45.8992 99.9854 45.3054 100.549 44.816C101.113 44.3265 101.86 44.0698 102.79 44.0466V43.3731H103.06V44.0466C103.99 44.0698 104.737 44.3265 105.301 44.816C105.865 45.3054 106.147 45.8992 106.147 46.5968C106.147 47.2949 105.865 47.8887 105.301 48.3787C104.737 48.8681 103.99 49.1244 103.06 49.148Z" fill="#F9F9F9" stroke="white" stroke-width="0.5"></path> <path d="M112.679 47.6263L111.115 43.8673L109.55 47.6263H112.679ZM112.772 47.8973H109.458L108.654 49.8212H108.383L110.98 43.5525H111.25L113.847 49.8212H113.576L112.772 47.8973Z" fill="#F9F9F9" stroke="white" stroke-width="0.5"></path> <path d="M117.2 47.6702L120.915 43.5525H121.274L118.944 46.149L121.497 49.8212H121.183L118.765 46.3283L117.2 48.029V49.8212H116.934V43.5525H117.2V47.6702Z" fill="#F9F9F9" stroke="white" stroke-width="0.5"></path> <path d="M123.645 43.5525H128.121V43.8234H126.018V49.8212H125.747V43.8234H123.645V43.5525Z" fill="#F9F9F9" stroke="white" stroke-width="0.5"></path> <path d="M133.041 47.7618L135.056 43.5524H135.323L132.905 48.6147C132.69 49.0574 132.463 49.384 132.226 49.5936C131.988 49.8032 131.707 49.9084 131.384 49.9084C131.305 49.9084 131.225 49.9009 131.142 49.8863C131.058 49.8721 130.997 49.8561 130.956 49.8386L130.89 49.8211V49.5544C131.039 49.6125 131.204 49.6418 131.384 49.6418C131.92 49.6418 132.342 49.2991 132.647 48.6147L132.905 48.0289L130.488 43.5524H130.759L133.041 47.7618Z" fill="#F9F9F9" stroke="white" stroke-width="0.5"></path> <path d="M140.513 43.8234H138.634V47.0453H140.513C141.026 47.0453 141.438 46.8943 141.748 46.5931C142.059 46.2911 142.214 45.9054 142.214 45.4348C142.214 44.9638 142.059 44.5777 141.748 44.2761C141.438 43.9745 141.026 43.8234 140.513 43.8234ZM138.367 43.5525H140.513C141.093 43.5525 141.567 43.7304 141.934 44.0858C142.301 44.4413 142.485 44.8911 142.485 45.4348C142.485 45.9781 142.301 46.4275 141.934 46.7829C141.567 47.1388 141.093 47.3162 140.513 47.3162H138.634V49.8212H138.367V43.5525Z" fill="#F9F9F9" stroke="white" stroke-width="0.5"></path> <path d="M148.832 47.6263L147.267 43.8673L145.702 47.6263H148.832ZM148.924 47.8973H145.61L144.806 49.8212H144.535L147.132 43.5525H147.403L149.999 49.8212H149.728L148.924 47.8973Z" fill="#F9F9F9" stroke="white" stroke-width="0.5"></path> </svg> 